<?xml version="1.0" encoding="UTF-8" ?>
<svg version="1.1" width="32" height="32" xmlns="http://www.w3.org/2000/svg" shape-rendering="crispEdges">
<rect x="4" y="1" width="1" height="1" fill="#FFFFFF" opacity="0.235294" />
<rect x="5" y="1" width="1" height="1" fill="#FFFFFF" opacity="0.654902" />
<rect x="6" y="1" width="1" height="1" fill="#FFFFFF" opacity="0.894118" />
<rect x="7" y="1" width="1" height="1" fill="#FFFFFF" opacity="0.976471" />
<rect x="8" y="1" width="1" height="1" fill="#FFFFFF" opacity="0.894118" />
<rect x="9" y="1" width="1" height="1" fill="#FFFFFF" opacity="0.654902" />
<rect x="10" y="1" width="1" height="1" fill="#FFFFFF" opacity="0.235294" />
<rect x="2" y="2" width="1" height="1" fill="#FFFFFF" opacity="0.015686" />
<rect x="3" y="2" width="1" height="1" fill="#FFFFFF" opacity="0.584314" />
<rect x="4" y="2" width="1" height="1" fill="#FFFFFF" />
<rect x="5" y="2" width="1" height="1" fill="#FFFFFF" />
<rect x="6" y="2" width="1" height="1" fill="#FFFFFF" />
<rect x="7" y="2" width="1" height="1" fill="#FFFFFF" />
<rect x="8" y="2" width="1" height="1" fill="#FFFFFF" />
<rect x="9" y="2" width="1" height="1" fill="#FFFFFF" />
<rect x="10" y="2" width="1" height="1" fill="#FFFFFF" />
<rect x="11" y="2" width="1" height="1" fill="#FFFFFF" opacity="0.584314" />
<rect x="12" y="2" width="1" height="1" fill="#FFFFFF" opacity="0.019608" />
<rect x="2" y="3" width="1" height="1" fill="#FFFFFF" opacity="0.607843" />
<rect x="3" y="3" width="1" height="1" fill="#FFFFFF" />
<rect x="4" y="3" width="1" height="1" fill="#FFFFFF" />
<rect x="5" y="3" width="1" height="1" fill="#FFFFFF" />
<rect x="6" y="3" width="1" height="1" fill="#FFFFFF" opacity="0.992157" />
<rect x="7" y="3" width="1" height="1" fill="#FFFFFF" opacity="0.933333" />
<rect x="8" y="3" width="1" height="1" fill="#FFFFFF" opacity="0.992157" />
<rect x="9" y="3" width="1" height="1" fill="#FFFFFF" />
<rect x="10" y="3" width="1" height="1" fill="#FFFFFF" />
<rect x="11" y="3" width="1" height="1" fill="#FFFFFF" />
<rect x="12" y="3" width="1" height="1" fill="#FFFFFF" opacity="0.607843" />
<rect x="1" y="4" width="1" height="1" fill="#FFFFFF" opacity="0.231373" />
<rect x="2" y="4" width="1" height="1" fill="#FFFFFF" />
<rect x="3" y="4" width="1" height="1" fill="#FFFFFF" />
<rect x="4" y="4" width="1" height="1" fill="#FFFFFF" opacity="0.996078" />
<rect x="5" y="4" width="1" height="1" fill="#FFFFFF" opacity="0.549020" />
<rect x="6" y="4" width="1" height="1" fill="#FFFFFF" opacity="0.078431" />
<rect x="8" y="4" width="1" height="1" fill="#FFFFFF" opacity="0.078431" />
<rect x="9" y="4" width="1" height="1" fill="#FFFFFF" opacity="0.549020" />
<rect x="10" y="4" width="1" height="1" fill="#FFFFFF" opacity="0.996078" />
<rect x="11" y="4" width="1" height="1" fill="#FFFFFF" />
<rect x="12" y="4" width="1" height="1" fill="#FFFFFF" />
<rect x="13" y="4" width="1" height="1" fill="#FFFFFF" opacity="0.231373" />
<rect x="1" y="5" width="1" height="1" fill="#FFFFFF" opacity="0.650980" />
<rect x="2" y="5" width="1" height="1" fill="#FFFFFF" />
<rect x="3" y="5" width="1" height="1" fill="#FFFFFF" />
<rect x="4" y="5" width="1" height="1" fill="#FFFFFF" opacity="0.545098" />
<rect x="10" y="5" width="1" height="1" fill="#FFFFFF" opacity="0.541176" />
<rect x="11" y="5" width="1" height="1" fill="#FFFFFF" />
<rect x="12" y="5" width="1" height="1" fill="#FFFFFF" />
<rect x="13" y="5" width="1" height="1" fill="#FFFFFF" opacity="0.654902" />
<rect x="21" y="5" width="1" height="1" fill="#FFFFFF" opacity="0.235294" />
<rect x="22" y="5" width="1" height="1" fill="#FFFFFF" opacity="0.654902" />
<rect x="23" y="5" width="1" height="1" fill="#FFFFFF" opacity="0.894118" />
<rect x="24" y="5" width="1" height="1" fill="#FFFFFF" opacity="0.976471" />
<rect x="25" y="5" width="1" height="1" fill="#FFFFFF" opacity="0.894118" />
<rect x="26" y="5" width="1" height="1" fill="#FFFFFF" opacity="0.654902" />
<rect x="27" y="5" width="1" height="1" fill="#FFFFFF" opacity="0.235294" />
<rect x="1" y="6" width="1" height="1" fill="#FFFFFF" opacity="0.909804" />
<rect x="2" y="6" width="1" height="1" fill="#FFFFFF" />
<rect x="3" y="6" width="1" height="1" fill="#FFFFFF" opacity="0.992157" />
<rect x="4" y="6" width="1" height="1" fill="#FFFFFF" opacity="0.078431" />
<rect x="10" y="6" width="1" height="1" fill="#FFFFFF" opacity="0.074510" />
<rect x="11" y="6" width="1" height="1" fill="#FFFFFF" opacity="0.992157" />
<rect x="12" y="6" width="1" height="1" fill="#FFFFFF" />
<rect x="13" y="6" width="1" height="1" fill="#FFFFFF" opacity="0.898039" />
<rect x="14" y="6" width="1" height="1" fill="#FFFFFF" opacity="0.607843" />
<rect x="19" y="6" width="1" height="1" fill="#FFFFFF" opacity="0.015686" />
<rect x="20" y="6" width="1" height="1" fill="#FFFFFF" opacity="0.584314" />
<rect x="21" y="6" width="1" height="1" fill="#FFFFFF" />
<rect x="22" y="6" width="1" height="1" fill="#FFFFFF" />
<rect x="23" y="6" width="1" height="1" fill="#FFFFFF" />
<rect x="24" y="6" width="1" height="1" fill="#FFFFFF" />
<rect x="25" y="6" width="1" height="1" fill="#FFFFFF" />
<rect x="26" y="6" width="1" height="1" fill="#FFFFFF" />
<rect x="27" y="6" width="1" height="1" fill="#FFFFFF" />
<rect x="28" y="6" width="1" height="1" fill="#FFFFFF" opacity="0.584314" />
<rect x="29" y="6" width="1" height="1" fill="#FFFFFF" opacity="0.019608" />
<rect x="1" y="7" width="1" height="1" fill="#FFFFFF" />
<rect x="2" y="7" width="1" height="1" fill="#FFFFFF" />
<rect x="3" y="7" width="1" height="1" fill="#FFFFFF" opacity="0.929412" />
<rect x="11" y="7" width="1" height="1" fill="#FFFFFF" opacity="0.929412" />
<rect x="12" y="7" width="1" height="1" fill="#FFFFFF" />
<rect x="13" y="7" width="1" height="1" fill="#FFFFFF" />
<rect x="14" y="7" width="1" height="1" fill="#FFFFFF" />
<rect x="15" y="7" width="1" height="1" fill="#FFFFFF" />
<rect x="16" y="7" width="1" height="1" fill="#FFFFFF" />
<rect x="17" y="7" width="1" height="1" fill="#FFFFFF" opacity="0.607843" />
<rect x="19" y="7" width="1" height="1" fill="#FFFFFF" opacity="0.607843" />
<rect x="20" y="7" width="1" height="1" fill="#FFFFFF" />
<rect x="21" y="7" width="1" height="1" fill="#FFFFFF" />
<rect x="22" y="7" width="1" height="1" fill="#FFFFFF" />
<rect x="23" y="7" width="1" height="1" fill="#FFFFFF" opacity="0.992157" />
<rect x="24" y="7" width="1" height="1" fill="#FFFFFF" opacity="0.933333" />
<rect x="25" y="7" width="1" height="1" fill="#FFFFFF" opacity="0.992157" />
<rect x="26" y="7" width="1" height="1" fill="#FFFFFF" />
<rect x="27" y="7" width="1" height="1" fill="#FFFFFF" />
<rect x="28" y="7" width="1" height="1" fill="#FFFFFF" />
<rect x="29" y="7" width="1" height="1" fill="#FFFFFF" opacity="0.607843" />
<rect x="1" y="8" width="1" height="1" fill="#FFFFFF" opacity="0.909804" />
<rect x="2" y="8" width="1" height="1" fill="#FFFFFF" />
<rect x="3" y="8" width="1" height="1" fill="#FFFFFF" opacity="0.992157" />
<rect x="4" y="8" width="1" height="1" fill="#FFFFFF" opacity="0.074510" />
<rect x="10" y="8" width="1" height="1" fill="#FFFFFF" opacity="0.074510" />
<rect x="11" y="8" width="1" height="1" fill="#FFFFFF" opacity="0.992157" />
<rect x="12" y="8" width="1" height="1" fill="#FFFFFF" />
<rect x="13" y="8" width="1" height="1" fill="#FFFFFF" />
<rect x="14" y="8" width="1" height="1" fill="#FFFFFF" />
<rect x="15" y="8" width="1" height="1" fill="#FFFFFF" />
<rect x="16" y="8" width="1" height="1" fill="#FFFFFF" />
<rect x="17" y="8" width="1" height="1" fill="#FFFFFF" />
<rect x="18" y="8" width="1" height="1" fill="#FFFFFF" />
<rect x="19" y="8" width="1" height="1" fill="#FFFFFF" />
<rect x="20" y="8" width="1" height="1" fill="#FFFFFF" />
<rect x="21" y="8" width="1" height="1" fill="#FFFFFF" opacity="0.996078" />
<rect x="22" y="8" width="1" height="1" fill="#FFFFFF" opacity="0.549020" />
<rect x="23" y="8" width="1" height="1" fill="#FFFFFF" opacity="0.078431" />
<rect x="25" y="8" width="1" height="1" fill="#FFFFFF" opacity="0.078431" />
<rect x="26" y="8" width="1" height="1" fill="#FFFFFF" opacity="0.549020" />
<rect x="27" y="8" width="1" height="1" fill="#FFFFFF" opacity="0.996078" />
<rect x="28" y="8" width="1" height="1" fill="#FFFFFF" />
<rect x="29" y="8" width="1" height="1" fill="#FFFFFF" />
<rect x="30" y="8" width="1" height="1" fill="#FFFFFF" opacity="0.231373" />
<rect x="1" y="9" width="1" height="1" fill="#FFFFFF" opacity="0.654902" />
<rect x="2" y="9" width="1" height="1" fill="#FFFFFF" />
<rect x="3" y="9" width="1" height="1" fill="#FFFFFF" />
<rect x="4" y="9" width="1" height="1" fill="#FFFFFF" opacity="0.545098" />
<rect x="10" y="9" width="1" height="1" fill="#FFFFFF" opacity="0.541176" />
<rect x="11" y="9" width="1" height="1" fill="#FFFFFF" />
<rect x="12" y="9" width="1" height="1" fill="#FFFFFF" />
<rect x="13" y="9" width="1" height="1" fill="#FFFFFF" opacity="0.654902" />
<rect x="14" y="9" width="1" height="1" fill="#FFFFFF" opacity="0.607843" />
<rect x="15" y="9" width="1" height="1" fill="#FFFFFF" />
<rect x="16" y="9" width="1" height="1" fill="#FFFFFF" />
<rect x="17" y="9" width="1" height="1" fill="#FFFFFF" />
<rect x="18" y="9" width="1" height="1" fill="#FFFFFF" />
<rect x="19" y="9" width="1" height="1" fill="#FFFFFF" />
<rect x="20" y="9" width="1" height="1" fill="#FFFFFF" />
<rect x="21" y="9" width="1" height="1" fill="#FFFFFF" opacity="0.545098" />
<rect x="27" y="9" width="1" height="1" fill="#FFFFFF" opacity="0.541176" />
<rect x="28" y="9" width="1" height="1" fill="#FFFFFF" />
<rect x="29" y="9" width="1" height="1" fill="#FFFFFF" />
<rect x="30" y="9" width="1" height="1" fill="#FFFFFF" opacity="0.654902" />
<rect x="1" y="10" width="1" height="1" fill="#FFFFFF" opacity="0.235294" />
<rect x="2" y="10" width="1" height="1" fill="#FFFFFF" />
<rect x="3" y="10" width="1" height="1" fill="#FFFFFF" />
<rect x="4" y="10" width="1" height="1" fill="#FFFFFF" opacity="0.996078" />
<rect x="5" y="10" width="1" height="1" fill="#FFFFFF" opacity="0.545098" />
<rect x="6" y="10" width="1" height="1" fill="#FFFFFF" opacity="0.074510" />
<rect x="8" y="10" width="1" height="1" fill="#FFFFFF" opacity="0.074510" />
<rect x="9" y="10" width="1" height="1" fill="#FFFFFF" opacity="0.545098" />
<rect x="10" y="10" width="1" height="1" fill="#FFFFFF" opacity="0.996078" />
<rect x="11" y="10" width="1" height="1" fill="#FFFFFF" />
<rect x="12" y="10" width="1" height="1" fill="#FFFFFF" />
<rect x="13" y="10" width="1" height="1" fill="#FFFFFF" opacity="0.235294" />
<rect x="17" y="10" width="1" height="1" fill="#FFFFFF" />
<rect x="18" y="10" width="1" height="1" fill="#FFFFFF" />
<rect x="19" y="10" width="1" height="1" fill="#FFFFFF" />
<rect x="20" y="10" width="1" height="1" fill="#FFFFFF" opacity="0.992157" />
<rect x="21" y="10" width="1" height="1" fill="#FFFFFF" opacity="0.078431" />
<rect x="27" y="10" width="1" height="1" fill="#FFFFFF" opacity="0.074510" />
<rect x="28" y="10" width="1" height="1" fill="#FFFFFF" opacity="0.992157" />
<rect x="29" y="10" width="1" height="1" fill="#FFFFFF" />
<rect x="30" y="10" width="1" height="1" fill="#FFFFFF" opacity="0.898039" />
<rect x="2" y="11" width="1" height="1" fill="#FFFFFF" opacity="0.580392" />
<rect x="3" y="11" width="1" height="1" fill="#FFFFFF" />
<rect x="4" y="11" width="1" height="1" fill="#FFFFFF" />
<rect x="5" y="11" width="1" height="1" fill="#FFFFFF" />
<rect x="6" y="11" width="1" height="1" fill="#FFFFFF" opacity="0.988235" />
<rect x="7" y="11" width="1" height="1" fill="#FFFFFF" opacity="0.933333" />
<rect x="8" y="11" width="1" height="1" fill="#FFFFFF" opacity="0.988235" />
<rect x="9" y="11" width="1" height="1" fill="#FFFFFF" />
<rect x="10" y="11" width="1" height="1" fill="#FFFFFF" />
<rect x="11" y="11" width="1" height="1" fill="#FFFFFF" />
<rect x="12" y="11" width="1" height="1" fill="#FFFFFF" opacity="0.580392" />
<rect x="17" y="11" width="1" height="1" fill="#FFFFFF" opacity="0.654902" />
<rect x="18" y="11" width="1" height="1" fill="#FFFFFF" />
<rect x="19" y="11" width="1" height="1" fill="#FFFFFF" />
<rect x="20" y="11" width="1" height="1" fill="#FFFFFF" opacity="0.929412" />
<rect x="28" y="11" width="1" height="1" fill="#FFFFFF" opacity="0.929412" />
<rect x="29" y="11" width="1" height="1" fill="#FFFFFF" />
<rect x="30" y="11" width="1" height="1" fill="#FFFFFF" opacity="0.976471" />
<rect x="2" y="12" width="1" height="1" fill="#FFFFFF" opacity="0.019608" />
<rect x="3" y="12" width="1" height="1" fill="#FFFFFF" opacity="0.584314" />
<rect x="4" y="12" width="1" height="1" fill="#FFFFFF" />
<rect x="5" y="12" width="1" height="1" fill="#FFFFFF" />
<rect x="6" y="12" width="1" height="1" fill="#FFFFFF" />
<rect x="7" y="12" width="1" height="1" fill="#FFFFFF" />
<rect x="8" y="12" width="1" height="1" fill="#FFFFFF" />
<rect x="9" y="12" width="1" height="1" fill="#FFFFFF" />
<rect x="10" y="12" width="1" height="1" fill="#FFFFFF" />
<rect x="11" y="12" width="1" height="1" fill="#FFFFFF" opacity="0.584314" />
<rect x="12" y="12" width="1" height="1" fill="#FFFFFF" opacity="0.019608" />
<rect x="18" y="12" width="1" height="1" fill="#FFFFFF" opacity="0.909804" />
<rect x="19" y="12" width="1" height="1" fill="#FFFFFF" />
<rect x="20" y="12" width="1" height="1" fill="#FFFFFF" opacity="0.992157" />
<rect x="21" y="12" width="1" height="1" fill="#FFFFFF" opacity="0.074510" />
<rect x="27" y="12" width="1" height="1" fill="#FFFFFF" opacity="0.074510" />
<rect x="28" y="12" width="1" height="1" fill="#FFFFFF" opacity="0.992157" />
<rect x="29" y="12" width="1" height="1" fill="#FFFFFF" />
<rect x="30" y="12" width="1" height="1" fill="#FFFFFF" opacity="0.898039" />
<rect x="4" y="13" width="1" height="1" fill="#FFFFFF" opacity="0.235294" />
<rect x="5" y="13" width="1" height="1" fill="#FFFFFF" opacity="0.654902" />
<rect x="6" y="13" width="1" height="1" fill="#FFFFFF" opacity="0.898039" />
<rect x="7" y="13" width="1" height="1" fill="#FFFFFF" />
<rect x="8" y="13" width="1" height="1" fill="#FFFFFF" opacity="0.898039" />
<rect x="9" y="13" width="1" height="1" fill="#FFFFFF" opacity="0.654902" />
<rect x="10" y="13" width="1" height="1" fill="#FFFFFF" opacity="0.235294" />
<rect x="18" y="13" width="1" height="1" fill="#FFFFFF" opacity="0.654902" />
<rect x="19" y="13" width="1" height="1" fill="#FFFFFF" />
<rect x="20" y="13" width="1" height="1" fill="#FFFFFF" />
<rect x="21" y="13" width="1" height="1" fill="#FFFFFF" opacity="0.545098" />
<rect x="27" y="13" width="1" height="1" fill="#FFFFFF" opacity="0.541176" />
<rect x="28" y="13" width="1" height="1" fill="#FFFFFF" />
<rect x="29" y="13" width="1" height="1" fill="#FFFFFF" />
<rect x="30" y="13" width="1" height="1" fill="#FFFFFF" opacity="0.654902" />
<rect x="5" y="14" width="1" height="1" fill="#FFFFFF" opacity="0.607843" />
<rect x="6" y="14" width="1" height="1" fill="#FFFFFF" />
<rect x="7" y="14" width="1" height="1" fill="#FFFFFF" />
<rect x="8" y="14" width="1" height="1" fill="#FFFFFF" />
<rect x="18" y="14" width="1" height="1" fill="#FFFFFF" opacity="0.235294" />
<rect x="19" y="14" width="1" height="1" fill="#FFFFFF" />
<rect x="20" y="14" width="1" height="1" fill="#FFFFFF" />
<rect x="21" y="14" width="1" height="1" fill="#FFFFFF" opacity="0.996078" />
<rect x="22" y="14" width="1" height="1" fill="#FFFFFF" opacity="0.545098" />
<rect x="23" y="14" width="1" height="1" fill="#FFFFFF" opacity="0.074510" />
<rect x="25" y="14" width="1" height="1" fill="#FFFFFF" opacity="0.074510" />
<rect x="26" y="14" width="1" height="1" fill="#FFFFFF" opacity="0.545098" />
<rect x="27" y="14" width="1" height="1" fill="#FFFFFF" opacity="0.996078" />
<rect x="28" y="14" width="1" height="1" fill="#FFFFFF" />
<rect x="29" y="14" width="1" height="1" fill="#FFFFFF" />
<rect x="30" y="14" width="1" height="1" fill="#FFFFFF" opacity="0.235294" />
<rect x="6" y="15" width="1" height="1" fill="#FFFFFF" />
<rect x="7" y="15" width="1" height="1" fill="#FFFFFF" />
<rect x="8" y="15" width="1" height="1" fill="#FFFFFF" />
<rect x="19" y="15" width="1" height="1" fill="#FFFFFF" opacity="0.580392" />
<rect x="20" y="15" width="1" height="1" fill="#FFFFFF" />
<rect x="21" y="15" width="1" height="1" fill="#FFFFFF" />
<rect x="22" y="15" width="1" height="1" fill="#FFFFFF" />
<rect x="23" y="15" width="1" height="1" fill="#FFFFFF" opacity="0.988235" />
<rect x="24" y="15" width="1" height="1" fill="#FFFFFF" opacity="0.933333" />
<rect x="25" y="15" width="1" height="1" fill="#FFFFFF" opacity="0.988235" />
<rect x="26" y="15" width="1" height="1" fill="#FFFFFF" />
<rect x="27" y="15" width="1" height="1" fill="#FFFFFF" />
<rect x="28" y="15" width="1" height="1" fill="#FFFFFF" />
<rect x="29" y="15" width="1" height="1" fill="#FFFFFF" opacity="0.580392" />
<rect x="6" y="16" width="1" height="1" fill="#FFFFFF" opacity="0.607843" />
<rect x="7" y="16" width="1" height="1" fill="#FFFFFF" />
<rect x="8" y="16" width="1" height="1" fill="#FFFFFF" />
<rect x="9" y="16" width="1" height="1" fill="#FFFFFF" opacity="0.654902" />
<rect x="19" y="16" width="1" height="1" fill="#FFFFFF" opacity="0.019608" />
<rect x="20" y="16" width="1" height="1" fill="#FFFFFF" opacity="0.584314" />
<rect x="21" y="16" width="1" height="1" fill="#FFFFFF" />
<rect x="22" y="16" width="1" height="1" fill="#FFFFFF" />
<rect x="23" y="16" width="1" height="1" fill="#FFFFFF" />
<rect x="24" y="16" width="1" height="1" fill="#FFFFFF" />
<rect x="25" y="16" width="1" height="1" fill="#FFFFFF" />
<rect x="26" y="16" width="1" height="1" fill="#FFFFFF" />
<rect x="27" y="16" width="1" height="1" fill="#FFFFFF" />
<rect x="28" y="16" width="1" height="1" fill="#FFFFFF" opacity="0.584314" />
<rect x="29" y="16" width="1" height="1" fill="#FFFFFF" opacity="0.019608" />
<rect x="6" y="17" width="1" height="1" fill="#FFFFFF" opacity="0.654902" />
<rect x="7" y="17" width="1" height="1" fill="#FFFFFF" opacity="0.988235" />
<rect x="8" y="17" width="1" height="1" fill="#FFFFFF" opacity="0.988235" />
<rect x="9" y="17" width="1" height="1" fill="#FFFFFF" opacity="0.988235" />
<rect x="20" y="17" width="1" height="1" fill="#FFFFFF" opacity="0.654902" />
<rect x="21" y="17" width="1" height="1" fill="#FFFFFF" />
<rect x="22" y="17" width="1" height="1" fill="#FFFFFF" />
<rect x="23" y="17" width="1" height="1" fill="#FFFFFF" opacity="0.898039" />
<rect x="24" y="17" width="1" height="1" fill="#FFFFFF" opacity="0.976471" />
<rect x="25" y="17" width="1" height="1" fill="#FFFFFF" opacity="0.898039" />
<rect x="26" y="17" width="1" height="1" fill="#FFFFFF" opacity="0.654902" />
<rect x="27" y="17" width="1" height="1" fill="#FFFFFF" opacity="0.235294" />
<rect x="7" y="18" width="1" height="1" fill="#FFFFFF" />
<rect x="8" y="18" width="1" height="1" fill="#FFFFFF" />
<rect x="9" y="18" width="1" height="1" fill="#FFFFFF" />
<rect x="10" y="18" width="1" height="1" fill="#FFFFFF" opacity="0.654902" />
<rect x="11" y="18" width="1" height="1" fill="#FFFFFF" opacity="0.894118" />
<rect x="12" y="18" width="1" height="1" fill="#FFFFFF" opacity="0.976471" />
<rect x="13" y="18" width="1" height="1" fill="#FFFFFF" opacity="0.894118" />
<rect x="14" y="18" width="1" height="1" fill="#FFFFFF" opacity="0.654902" />
<rect x="15" y="18" width="1" height="1" fill="#FFFFFF" opacity="0.235294" />
<rect x="19" y="18" width="1" height="1" fill="#FFFFFF" opacity="0.654902" />
<rect x="20" y="18" width="1" height="1" fill="#FFFFFF" />
<rect x="21" y="18" width="1" height="1" fill="#FFFFFF" />
<rect x="22" y="18" width="1" height="1" fill="#FFFFFF" />
<rect x="23" y="18" width="1" height="1" fill="#FFFFFF" opacity="0.654902" />
<rect x="7" y="19" width="1" height="1" fill="#FFFFFF" />
<rect x="8" y="19" width="1" height="1" fill="#FFFFFF" />
<rect x="9" y="19" width="1" height="1" fill="#FFFFFF" />
<rect x="10" y="19" width="1" height="1" fill="#FFFFFF" />
<rect x="11" y="19" width="1" height="1" fill="#FFFFFF" />
<rect x="12" y="19" width="1" height="1" fill="#FFFFFF" />
<rect x="13" y="19" width="1" height="1" fill="#FFFFFF" />
<rect x="14" y="19" width="1" height="1" fill="#FFFFFF" />
<rect x="15" y="19" width="1" height="1" fill="#FFFFFF" />
<rect x="16" y="19" width="1" height="1" fill="#FFFFFF" opacity="0.584314" />
<rect x="17" y="19" width="1" height="1" fill="#FFFFFF" opacity="0.019608" />
<rect x="18" y="19" width="1" height="1" fill="#FFFFFF" opacity="0.607843" />
<rect x="19" y="19" width="1" height="1" fill="#FFFFFF" />
<rect x="20" y="19" width="1" height="1" fill="#FFFFFF" />
<rect x="21" y="19" width="1" height="1" fill="#FFFFFF" />
<rect x="22" y="19" width="1" height="1" fill="#FFFFFF" opacity="0.654902" />
<rect x="7" y="20" width="1" height="1" fill="#FFFFFF" opacity="0.607843" />
<rect x="8" y="20" width="1" height="1" fill="#FFFFFF" />
<rect x="9" y="20" width="1" height="1" fill="#FFFFFF" />
<rect x="10" y="20" width="1" height="1" fill="#FFFFFF" />
<rect x="11" y="20" width="1" height="1" fill="#FFFFFF" opacity="0.992157" />
<rect x="12" y="20" width="1" height="1" fill="#FFFFFF" opacity="0.933333" />
<rect x="13" y="20" width="1" height="1" fill="#FFFFFF" opacity="0.992157" />
<rect x="14" y="20" width="1" height="1" fill="#FFFFFF" />
<rect x="15" y="20" width="1" height="1" fill="#FFFFFF" />
<rect x="16" y="20" width="1" height="1" fill="#FFFFFF" />
<rect x="17" y="20" width="1" height="1" fill="#FFFFFF" opacity="0.607843" />
<rect x="18" y="20" width="1" height="1" fill="#FFFFFF" />
<rect x="19" y="20" width="1" height="1" fill="#FFFFFF" />
<rect x="20" y="20" width="1" height="1" fill="#FFFFFF" />
<rect x="21" y="20" width="1" height="1" fill="#FFFFFF" opacity="0.654902" />
<rect x="6" y="21" width="1" height="1" fill="#FFFFFF" opacity="0.231373" />
<rect x="7" y="21" width="1" height="1" fill="#FFFFFF" />
<rect x="8" y="21" width="1" height="1" fill="#FFFFFF" />
<rect x="9" y="21" width="1" height="1" fill="#FFFFFF" opacity="0.996078" />
<rect x="10" y="21" width="1" height="1" fill="#FFFFFF" opacity="0.549020" />
<rect x="11" y="21" width="1" height="1" fill="#FFFFFF" opacity="0.078431" />
<rect x="13" y="21" width="1" height="1" fill="#FFFFFF" opacity="0.078431" />
<rect x="14" y="21" width="1" height="1" fill="#FFFFFF" opacity="0.549020" />
<rect x="15" y="21" width="1" height="1" fill="#FFFFFF" opacity="0.996078" />
<rect x="16" y="21" width="1" height="1" fill="#FFFFFF" />
<rect x="17" y="21" width="1" height="1" fill="#FFFFFF" />
<rect x="18" y="21" width="1" height="1" fill="#FFFFFF" />
<rect x="19" y="21" width="1" height="1" fill="#FFFFFF" />
<rect x="20" y="21" width="1" height="1" fill="#FFFFFF" />
<rect x="6" y="22" width="1" height="1" fill="#FFFFFF" opacity="0.650980" />
<rect x="7" y="22" width="1" height="1" fill="#FFFFFF" />
<rect x="8" y="22" width="1" height="1" fill="#FFFFFF" />
<rect x="9" y="22" width="1" height="1" fill="#FFFFFF" opacity="0.545098" />
<rect x="15" y="22" width="1" height="1" fill="#FFFFFF" opacity="0.541176" />
<rect x="16" y="22" width="1" height="1" fill="#FFFFFF" />
<rect x="17" y="22" width="1" height="1" fill="#FFFFFF" />
<rect x="18" y="22" width="1" height="1" fill="#FFFFFF" />
<rect x="19" y="22" width="1" height="1" fill="#FFFFFF" />
<rect x="6" y="23" width="1" height="1" fill="#FFFFFF" opacity="0.909804" />
<rect x="7" y="23" width="1" height="1" fill="#FFFFFF" />
<rect x="8" y="23" width="1" height="1" fill="#FFFFFF" opacity="0.992157" />
<rect x="9" y="23" width="1" height="1" fill="#FFFFFF" opacity="0.078431" />
<rect x="15" y="23" width="1" height="1" fill="#FFFFFF" opacity="0.074510" />
<rect x="16" y="23" width="1" height="1" fill="#FFFFFF" opacity="0.992157" />
<rect x="17" y="23" width="1" height="1" fill="#FFFFFF" />
<rect x="18" y="23" width="1" height="1" fill="#FFFFFF" opacity="0.898039" />
<rect x="19" y="23" width="1" height="1" fill="#FFFFFF" opacity="0.607843" />
<rect x="6" y="24" width="1" height="1" fill="#FFFFFF" />
<rect x="7" y="24" width="1" height="1" fill="#FFFFFF" />
<rect x="8" y="24" width="1" height="1" fill="#FFFFFF" opacity="0.929412" />
<rect x="16" y="24" width="1" height="1" fill="#FFFFFF" opacity="0.929412" />
<rect x="17" y="24" width="1" height="1" fill="#FFFFFF" />
<rect x="18" y="24" width="1" height="1" fill="#FFFFFF" opacity="0.976471" />
<rect x="6" y="25" width="1" height="1" fill="#FFFFFF" opacity="0.909804" />
<rect x="7" y="25" width="1" height="1" fill="#FFFFFF" />
<rect x="8" y="25" width="1" height="1" fill="#FFFFFF" opacity="0.992157" />
<rect x="9" y="25" width="1" height="1" fill="#FFFFFF" opacity="0.074510" />
<rect x="15" y="25" width="1" height="1" fill="#FFFFFF" opacity="0.074510" />
<rect x="16" y="25" width="1" height="1" fill="#FFFFFF" opacity="0.992157" />
<rect x="17" y="25" width="1" height="1" fill="#FFFFFF" />
<rect x="18" y="25" width="1" height="1" fill="#FFFFFF" opacity="0.898039" />
<rect x="6" y="26" width="1" height="1" fill="#FFFFFF" opacity="0.654902" />
<rect x="7" y="26" width="1" height="1" fill="#FFFFFF" />
<rect x="8" y="26" width="1" height="1" fill="#FFFFFF" />
<rect x="9" y="26" width="1" height="1" fill="#FFFFFF" opacity="0.545098" />
<rect x="15" y="26" width="1" height="1" fill="#FFFFFF" opacity="0.541176" />
<rect x="16" y="26" width="1" height="1" fill="#FFFFFF" />
<rect x="17" y="26" width="1" height="1" fill="#FFFFFF" />
<rect x="18" y="26" width="1" height="1" fill="#FFFFFF" opacity="0.654902" />
<rect x="6" y="27" width="1" height="1" fill="#FFFFFF" opacity="0.235294" />
<rect x="7" y="27" width="1" height="1" fill="#FFFFFF" />
<rect x="8" y="27" width="1" height="1" fill="#FFFFFF" />
<rect x="9" y="27" width="1" height="1" fill="#FFFFFF" opacity="0.996078" />
<rect x="10" y="27" width="1" height="1" fill="#FFFFFF" opacity="0.545098" />
<rect x="11" y="27" width="1" height="1" fill="#FFFFFF" opacity="0.074510" />
<rect x="13" y="27" width="1" height="1" fill="#FFFFFF" opacity="0.074510" />
<rect x="14" y="27" width="1" height="1" fill="#FFFFFF" opacity="0.545098" />
<rect x="15" y="27" width="1" height="1" fill="#FFFFFF" opacity="0.996078" />
<rect x="16" y="27" width="1" height="1" fill="#FFFFFF" />
<rect x="17" y="27" width="1" height="1" fill="#FFFFFF" />
<rect x="18" y="27" width="1" height="1" fill="#FFFFFF" opacity="0.235294" />
<rect x="7" y="28" width="1" height="1" fill="#FFFFFF" opacity="0.580392" />
<rect x="8" y="28" width="1" height="1" fill="#FFFFFF" />
<rect x="9" y="28" width="1" height="1" fill="#FFFFFF" />
<rect x="10" y="28" width="1" height="1" fill="#FFFFFF" />
<rect x="11" y="28" width="1" height="1" fill="#FFFFFF" opacity="0.988235" />
<rect x="12" y="28" width="1" height="1" fill="#FFFFFF" opacity="0.933333" />
<rect x="13" y="28" width="1" height="1" fill="#FFFFFF" opacity="0.988235" />
<rect x="14" y="28" width="1" height="1" fill="#FFFFFF" />
<rect x="15" y="28" width="1" height="1" fill="#FFFFFF" />
<rect x="16" y="28" width="1" height="1" fill="#FFFFFF" />
<rect x="17" y="28" width="1" height="1" fill="#FFFFFF" opacity="0.580392" />
<rect x="7" y="29" width="1" height="1" fill="#FFFFFF" opacity="0.019608" />
<rect x="8" y="29" width="1" height="1" fill="#FFFFFF" opacity="0.584314" />
<rect x="9" y="29" width="1" height="1" fill="#FFFFFF" />
<rect x="10" y="29" width="1" height="1" fill="#FFFFFF" />
<rect x="11" y="29" width="1" height="1" fill="#FFFFFF" />
<rect x="12" y="29" width="1" height="1" fill="#FFFFFF" />
<rect x="13" y="29" width="1" height="1" fill="#FFFFFF" />
<rect x="14" y="29" width="1" height="1" fill="#FFFFFF" />
<rect x="15" y="29" width="1" height="1" fill="#FFFFFF" />
<rect x="16" y="29" width="1" height="1" fill="#FFFFFF" opacity="0.584314" />
<rect x="17" y="29" width="1" height="1" fill="#FFFFFF" opacity="0.019608" />
<rect x="9" y="30" width="1" height="1" fill="#FFFFFF" opacity="0.235294" />
<rect x="10" y="30" width="1" height="1" fill="#FFFFFF" opacity="0.654902" />
<rect x="11" y="30" width="1" height="1" fill="#FFFFFF" opacity="0.898039" />
<rect x="12" y="30" width="1" height="1" fill="#FFFFFF" opacity="0.976471" />
<rect x="13" y="30" width="1" height="1" fill="#FFFFFF" opacity="0.898039" />
<rect x="14" y="30" width="1" height="1" fill="#FFFFFF" opacity="0.654902" />
<rect x="15" y="30" width="1" height="1" fill="#FFFFFF" opacity="0.235294" />
</svg>